<svg xmlns="http://www.w3.org/2000/svg" xmlns:xlink="http://www.w3.org/1999/xlink" aria-hidden="true" role="img" class="iconify iconify--logos" width="35.93" height="32" preserveAspectRatio="xMidYMid meet" viewBox="0 0 256 228"><path fill="#00D8FF" d="M210.483 73.824a171.49 171.49 0 0 0-8.24-2.597c.465-1.9.893-3.777 1.273-5.621c6.238-30.281 2.16-54.676-11.769-62.708c-13.355-7.7-35.196.329-57.254 19.526a171.23 171.23 0 0 0-6.375 5.848a155.866 155.866 0 0 0-4.241-3.917C100.759 3.829 77.587-4.822 63.673 3.233C50.33 10.957 46.379 33.89 51.995 62.588a170.974 170.974 0 0 0 1.892 8.48c-3.28.932-6.445 1.924-9.474 2.98C17.309 83.498 0 98.307 0 113.668c0 15.865 18.582 31.778 46.812 41.427a145.52 145.52 0 0 0 6.921 2.165a167.467 167.467 0 0 0-2.01 9.138c-5.354 28.2-1.173 50.591 12.134 58.266c13.744 7.926 36.812-.22 59.273-19.855a145.567 145.567 0 0 0 5.342-4.923a168.064 168.064 0 0 0 6.92 6.314c21.03 23.784 46.595 36.446 65.716 36.446c18.902 0 35.92-11.947 44.524-28.974c13.478-28.485 9.832-64.056-7.491-92.773a174.324 174.324 0 0 0-4.832-7.777c4.684-4.504 9.233-9.201 13.795-14.062c24.423-26.827 33.691-62.642 21.717-82.597C204.081 4.829 181.195-4.568 142.767 4.088zm-10.73 40.404c11.872 24.686 26.671 43.426 42.992 52.441c16.347 9.028 33.644 9.305 48.33.602c14.683-8.701 26.163-26.191 32.432-48.529c6.269-22.338 5.947-45.524-4.294-62.776c-10.298-17.278-28.058-28.686-47.901-28.686s-37.603 11.408-47.903 28.686c-10.242 17.252-10.565 40.438-4.293 62.776m-44.51-68.552c6.236-18.815 19.108-36.381 38.842-48.735c19.696-12.338 43.784-16.991 67.701-12.933c23.917 4.058 43.962 16.891 55.276 36.304c11.313 19.413 12.936 42.798 4.294 61.651c-8.642 18.852-27.488 33.135-50.045 38.7c-22.557 5.565-46.855 1.934-66.553-10.404c-19.698-12.338-32.546-29.802-38.842-48.735m-52.32 91.921c-6.259-16.347-6.259-34.028 0-50.375c6.259-16.347 17.71-30.614 32.432-39.539c14.722-8.925 31.773-11.256 48.33-6.584c16.556 4.672 31.573 15.626 42.992 31.915c11.419 16.289 17.173 36.074 17.173 56.208s-5.754 39.919-17.173 56.208c-11.419 16.289-26.436 27.243-42.992 31.915c-16.557 4.672-33.608 2.341-48.33-6.584c-14.722-8.925-26.173-23.192-32.432-39.539m-52.93-91.921c-6.236 18.815-6.236 39.919 0 58.734c6.236 18.815 19.108 36.381 38.842 48.735c19.696 12.338 43.784 16.991 67.701 12.933c23.917-4.058 43.962-16.891 55.276-36.304c11.313-19.413 12.936-42.798 4.294-61.651s-27.488-33.135-50.045-38.7c-22.557-5.565-46.855-1.934-66.553 10.404s-32.546 29.802-38.842 48.735m-44.51 68.552c11.872-24.686 26.671-43.426 42.992-52.441c16.347-9.028 33.644-9.305 48.33-.602c14.683 8.701 26.163 26.191 32.432 48.529c6.269 22.338 5.947 45.524-4.294 62.776c-10.298 17.278-28.058 28.686-47.901 28.686s-37.603-11.408-47.903-28.686c-10.242-17.252-10.565-40.438-4.293-62.776M91.58 91.921c-6.259 16.347-6.259 34.028 0 50.375c6.259 16.347 17.71 30.614 32.432 39.539c14.722 8.925 31.773 11.256 48.33 6.584c16.556-4.672 31.573-15.626 42.992-31.915c11.419-16.289 17.173-36.074 17.173-56.208s-5.754-39.919-17.173-56.208c-11.419-16.289-26.436-27.243-42.992-31.915c-16.557-4.672-33.608-2.341-48.33 6.584c-14.722 8.925-26.173 23.192-32.432 39.539z"></path></svg>